Coordinates
version=1
nRows=65
nColumns=12
inDegrees=yes

Units are S.I. units (second, meters, Newtons, ...)
Angles are in degrees

endheader
time	SC_y	SC_z	SC_x	AC_y	AC_z	AC_x	GH_y	GH_z	GH_yy	EL_x	PS_y
       0.0              -40.15        -0.6348          4.871          50.17          1.784          19.41         -93.96          25.06           99.7          53.55          120.8
   0.01323              -40.15        -0.6336          4.875          50.17          1.783          19.41         -93.95          25.05          99.69          53.56          120.8
   0.02646              -40.15        -0.6324          4.878          50.17          1.782           19.4         -93.95          25.05          99.68          53.56          120.8
   0.03969              -40.15        -0.6311          4.882          50.17           1.78           19.4         -93.94          25.04          99.68          53.57          120.8
   0.05292              -40.15        -0.6297          4.887          50.16          1.779           19.4         -93.93          25.04          99.67          53.58          120.8
   0.06615              -40.15        -0.6282          4.891          50.16          1.777           19.4         -93.93          25.04          99.66          53.59          120.7
   0.07938              -40.15        -0.6266          4.896          50.16          1.776           19.4         -93.92          25.03          99.65           53.6          120.7
   0.09261              -40.15         -0.625          4.902          50.16          1.774           19.4         -93.91          25.03          99.64          53.61          120.7
    0.1058              -40.15        -0.6231          4.907          50.16          1.772           19.4          -93.9          25.02          99.63          53.62          120.7
    0.1191              -40.15        -0.6212          4.913          50.15           1.77           19.4         -93.89          25.01          99.62          53.63          120.6
    0.1323              -40.16        -0.6191           4.92          50.15          1.768           19.4         -93.88          25.01          99.61          53.65          120.6
    0.1455              -40.16        -0.6169          4.927          50.15          1.766           19.4         -93.87           25.0           99.6          53.66          120.6
    0.1588              -40.16        -0.6145          4.935          50.14          1.763           19.4         -93.86          24.99          99.58          53.67          120.6
     0.172              -40.16        -0.6119          4.943          50.14          1.761           19.4         -93.84          24.99          99.57          53.69          120.5
    0.1852              -40.16         -0.609          4.952          50.14          1.758          19.39         -93.83          24.98          99.55          53.71          120.5
    0.1985              -40.17         -0.606          4.961          50.13          1.754          19.39         -93.81          24.97          99.53          53.73          120.5
    0.2117              -40.17        -0.6026          4.972          50.13          1.751          19.39          -93.8          24.96          99.51          53.75          120.4
    0.2249              -40.17         -0.599          4.983          50.12          1.747          19.39         -93.78          24.95          99.49          53.77          120.4
    0.2381              -40.17        -0.5951          4.995          50.12          1.743          19.39         -93.76          24.93          99.47           53.8          120.3
    0.2514              -40.18        -0.5907          5.009          50.11          1.739          19.39         -93.74          24.92          99.45          53.82          120.3
    0.2646              -40.18         -0.586          5.024           50.1          1.734          19.38         -93.71          24.91          99.42          53.85          120.2
    0.2778              -40.18        -0.5807           5.04          50.09          1.729          19.38         -93.69          24.89          99.39          53.88          120.2
    0.2911              -40.19        -0.5749          5.058          50.09          1.723          19.38         -93.66          24.87          99.36          53.92          120.1
    0.3043              -40.19        -0.5685          5.078          50.08          1.716          19.38         -93.62          24.85          99.32          53.96          120.0
    0.3175               -40.2        -0.5614          5.101          50.07          1.709          19.37         -93.59          24.83          99.28           54.0          119.9
    0.3308               -40.2        -0.5535          5.126          50.06          1.701          19.37         -93.55          24.81          99.23          54.05          119.8
     0.344              -40.21        -0.5445          5.154          50.04          1.691          19.37          -93.5          24.78          99.18          54.11          119.7
    0.3572              -40.21        -0.5345          5.185          50.03          1.681          19.36         -93.45          24.75          99.13          54.17          119.6
    0.3705              -40.22        -0.5232           5.22          50.01          1.669          19.36         -93.39          24.71          99.06          54.24          119.4
    0.3837              -40.23        -0.5103          5.261          49.99          1.656          19.35         -93.33          24.68          98.99          54.32          119.3
    0.3969              -40.24        -0.4957          5.307          49.97          1.641          19.34         -93.26          24.63          98.91          54.41          119.1
    0.4101              -40.25        -0.4788          5.359          49.95          1.624          19.34         -93.17          24.58          98.81          54.52          118.9
    0.4234              -40.27        -0.4594           5.42          49.92          1.604          19.33         -93.07          24.52           98.7          54.64          118.7
    0.4366              -40.28        -0.4368          5.491          49.89          1.581          19.32         -92.96          24.45          98.57          54.78          118.4
    0.4498               -40.3        -0.4104          5.574          49.85          1.554          19.31         -92.82          24.37          98.42          54.94          118.1
    0.4631              -40.32        -0.3792          5.672          49.81          1.522          19.29         -92.67          24.27          98.24          55.13          117.7
    0.4763              -40.35        -0.3422          5.787          49.75          1.484          19.27         -92.48          24.16          98.03          55.36          117.2
    0.4895              -40.38        -0.2978          5.927          49.69          1.438          19.25         -92.25          24.02          97.78          55.64          116.7
    0.5028              -40.41        -0.2441          6.095          49.62          1.383          19.23         -91.98          23.86          97.47          55.97          116.0
     0.516              -40.46        -0.1785            6.3          49.52          1.315           19.2         -91.65          23.66           97.1          56.38          115.2
    0.5292              -40.51       -0.09751          6.554          49.41          1.232          19.16         -91.24          23.41          96.64          56.88          114.2
    0.5424              -40.58       0.003456           6.87          49.26          1.129          19.12         -90.73           23.1          96.07           57.5          113.0
    0.5557              -40.67         0.1306          7.269          49.08         0.9981          19.06         -90.09          22.71          95.34          58.29          111.4
    0.5689              -40.78         0.2923          7.775          48.85          0.832          18.99         -89.27          22.22          94.42          59.29          109.4
    0.5821              -40.92         0.4993          8.423          48.56         0.6195           18.9         -88.22          21.58          93.24          60.57          106.9
    0.5954              -41.11         0.7649          9.255          48.18         0.3468          18.78         -86.88          20.77          91.73          62.22          103.7
    0.6086              -41.34          1.104          10.32          47.69      -0.001496          18.63         -85.17          19.73           89.8          64.32          99.49
    0.6218              -41.63          1.531          11.65          47.09        -0.4395          18.43         -83.01          18.43          87.38          66.96          94.26
    0.6351              -41.99           2.05          13.28          46.35        -0.9732           18.2         -80.38          16.84          84.42          70.18          87.89
    0.6483               -42.4          2.653          15.17          45.49         -1.592          17.93         -77.33          14.99          80.99          73.91           80.5
    0.6615              -42.85          3.305          17.21          44.56         -2.262          17.64         -74.03           13.0          77.28          77.95           72.5
    0.6747               -43.3          3.958          19.26          43.63         -2.932          17.34         -70.73           11.0          73.57          81.99           64.5
     0.688              -43.71           4.56          21.14          42.77          -3.55          17.07         -67.69          9.154          70.14          85.73          57.11
    0.7012              -44.07           5.08          22.77          42.03         -4.084          16.84         -65.06          7.563          67.18          88.95          50.74
    0.7144              -44.37          5.507          24.11          41.42         -4.522          16.65          -62.9          6.257          64.75          91.59          45.51
    0.7277               -44.6          5.846          25.17          40.94         -4.871           16.5         -61.18          5.219          62.82          93.69          41.35
    0.7409              -44.78          6.111           26.0          40.56         -5.143          16.38         -59.84          4.406          61.31          95.33          38.09
    0.7541              -44.92          6.318          26.65          40.26         -5.356          16.29          -58.8          3.773          60.13          96.62          35.56
    0.7674              -45.03           6.48          27.16          40.03         -5.522          16.21         -57.98          3.278          59.21          97.62          33.57
    0.7806              -45.12          6.607          27.56          39.85         -5.652          16.16         -57.33          2.888          58.49           98.4          32.01
    0.7938              -45.19          6.708          27.87          39.71         -5.756          16.11         -56.82          2.579          57.92          99.03          30.78
    0.8071              -45.25          6.789          28.13          39.59         -5.839          16.07         -56.41          2.331          57.45          99.53          29.78
    0.8203              -45.29          6.855          28.33           39.5         -5.907          16.04         -56.08          2.131          57.08          99.94          28.98
    0.8335              -45.33          6.908           28.5          39.42         -5.962          16.02         -55.81          1.966          56.78          100.3          28.32
    0.8467              -45.36          6.953          28.64          39.36         -6.007           16.0         -55.59           1.83          56.52          100.5          27.78
